<?xml version="1.0" encoding="UTF-8" standalone="no"?><svg xmlns="http://www.w3.org/2000/svg" xmlns:xlink="http://www.w3.org/1999/xlink" contentScriptType="application/ecmascript" contentStyleType="text/css" height="512px" preserveAspectRatio="none" style="width:984px;height:511px;" version="1.1" viewBox="0 0 984 511" width="984.1614px" zoomAndPan="magnify"><defs><filter height="300%" id="fxi6e5iizjj61" width="300%" x="-1" y="-1"><feGaussianBlur result="blurOut" stdDeviation="2.951008645533141"/><feColorMatrix in="blurOut" result="blurOut2" type="matrix" values="0 0 0 0 0 0 0 0 0 0 0 0 0 0 0 0 0 0 .4 0"/><feOffset dx="5.902017291066282" dy="5.902017291066282" in="blurOut2" result="blurOut3"/><feBlend in="SourceGraphic" in2="blurOut3" mode="normal"/></filter></defs><g><!--cluster UI--><polygon fill="#FFFFFF" filter="url(#fxi6e5iizjj61)" points="509.049,35.4121,541.5101,35.4121,551.8386,68.3112,833.6599,68.3112,833.6599,162.3055,509.049,162.3055,509.049,35.4121" style="stroke: #000000; stroke-width: 2.951008645533141;"/><line style="stroke: #000000; stroke-width: 2.951008645533141;" x1="509.049" x2="551.8386" y1="68.3112" y2="68.3112"/><text fill="#000000" font-family="sans-serif" font-size="20.6571" font-weight="bold" lengthAdjust="spacingAndGlyphs" textLength="23.6081" x="514.951" y="57.5375">UI</text><!--cluster API--><polygon fill="#FFFFFF" filter="url(#fxi6e5iizjj61)" points="309.8559,197.7176,357.072,197.7176,367.4006,230.6167,973.8329,230.6167,973.8329,324.611,309.8559,324.611,309.8559,197.7176" style="stroke: #000000; stroke-width: 2.951008645533141;"/><line style="stroke: #000000; stroke-width: 2.951008645533141;" x1="309.8559" x2="367.4006" y1="230.6167" y2="230.6167"/><text fill="#000000" font-family="sans-serif" font-size="20.6571" font-weight="bold" lengthAdjust="spacingAndGlyphs" textLength="38.3631" x="315.7579" y="219.8429">API</text><!--cluster Banco de dados--><polygon fill="#FFFFFF" filter="url(#fxi6e5iizjj61)" points="118.0403,360.0231,311.3314,360.0231,321.6599,392.9222,616.7608,392.9222,616.7608,501.6715,118.0403,501.6715,118.0403,360.0231" style="stroke: #000000; stroke-width: 2.951008645533141;"/><line style="stroke: #000000; stroke-width: 2.951008645533141;" x1="118.0403" x2="321.6599" y1="392.9222" y2="392.9222"/><text fill="#000000" font-family="sans-serif" font-size="20.6571" font-weight="bold" lengthAdjust="spacingAndGlyphs" textLength="184.438" x="123.9424" y="382.1484">Banco de dados</text><!--cluster Process--><polygon fill="#FFFFFF" filter="url(#fxi6e5iizjj61)" points="32.4611,197.7176,131.3199,197.7176,141.6484,230.6167,274.4438,230.6167,274.4438,324.611,32.4611,324.611,32.4611,197.7176" style="stroke: #000000; stroke-width: 2.951008645533141;"/><line style="stroke: #000000; stroke-width: 2.951008645533141;" x1="32.4611" x2="141.6484" y1="230.6167" y2="230.6167"/><text fill="#000000" font-family="sans-serif" font-size="20.6571" font-weight="bold" lengthAdjust="spacingAndGlyphs" textLength="90.0058" x="38.3631" y="219.8429">Process</text><!--entity Dispositivo embarcado--><rect fill="#FFD700" filter="url(#fxi6e5iizjj61)" height="51.8386" style="stroke: #000000; stroke-width: 2.2132564841498557;" width="277.3948" x="532.6571" y="87.0548"/><rect fill="#FFD700" height="7.3775" style="stroke: #000000; stroke-width: 2.2132564841498557;" width="14.755" x="525.2795" y="94.4323"/><rect fill="#FFD700" height="7.3775" style="stroke: #000000; stroke-width: 2.2132564841498557;" width="14.755" x="525.2795" y="124.1383"/><text fill="#000000" font-family="Courier" font-size="19.1816" lengthAdjust="spacingAndGlyphs" textLength="247.8847" x="547.4121" y="119.6146">Dispositivo embarcado</text><!--entity Command Session--><rect fill="#FFD700" filter="url(#fxi6e5iizjj61)" height="51.8386" style="stroke: #000000; stroke-width: 2.2132564841498557;" width="206.5706" x="568.0692" y="249.3602"/><rect fill="#FFD700" height="7.3775" style="stroke: #000000; stroke-width: 2.2132564841498557;" width="14.755" x="560.6916" y="256.7378"/><rect fill="#FFD700" height="7.3775" style="stroke: #000000; stroke-width: 2.2132564841498557;" width="14.755" x="560.6916" y="286.4438"/><text fill="#000000" font-family="Courier" font-size="19.1816" lengthAdjust="spacingAndGlyphs" textLength="177.0605" x="582.8242" y="281.92">Command Session</text><!--entity Query Session--><rect fill="#FFD700" filter="url(#fxi6e5iizjj61)" height="51.8386" style="stroke: #000000; stroke-width: 2.2132564841498557;" width="182.9625" x="333.464" y="249.3602"/><rect fill="#FFD700" height="7.3775" style="stroke: #000000; stroke-width: 2.2132564841498557;" width="14.755" x="326.0865" y="256.7378"/><rect fill="#FFD700" height="7.3775" style="stroke: #000000; stroke-width: 2.2132564841498557;" width="14.755" x="326.0865" y="286.4438"/><text fill="#000000" font-family="Courier" font-size="19.1816" lengthAdjust="spacingAndGlyphs" textLength="153.4524" x="348.219" y="281.92">Query Session</text><!--entity Tracking--><rect fill="#FFD700" filter="url(#fxi6e5iizjj61)" height="51.8386" style="stroke: #000000; stroke-width: 2.2132564841498557;" width="123.9424" x="826.2824" y="249.3602"/><rect fill="#FFD700" height="7.3775" style="stroke: #000000; stroke-width: 2.2132564841498557;" width="14.755" x="818.9049" y="256.7378"/><rect fill="#FFD700" height="7.3775" style="stroke: #000000; stroke-width: 2.2132564841498557;" width="14.755" x="818.9049" y="286.4438"/><text fill="#000000" font-family="Courier" font-size="19.1816" lengthAdjust="spacingAndGlyphs" textLength="94.4323" x="841.0375" y="281.92">Tracking</text><!--entity KAFKA--><path d="M495.7695,426.4207 C495.7695,411.6657 544.4611,411.6657 544.4611,411.6657 C544.4611,411.6657 593.1527,411.6657 593.1527,426.4207 L593.1527,463.7464 C593.1527,478.5014 544.4611,478.5014 544.4611,478.5014 C544.4611,478.5014 495.7695,478.5014 495.7695,463.7464 L495.7695,426.4207 " fill="#FEFECE" filter="url(#fxi6e5iizjj61)" style="stroke: #000000; stroke-width: 2.2132564841498557;"/><path d="M495.7695,426.4207 C495.7695,441.1758 544.4611,441.1758 544.4611,441.1758 C544.4611,441.1758 593.1527,441.1758 593.1527,426.4207 " fill="none" style="stroke: #000000; stroke-width: 2.2132564841498557;"/><text fill="#000000" font-family="sans-serif" font-size="20.6571" lengthAdjust="spacingAndGlyphs" textLength="67.8732" x="510.5245" y="466.2522">KAFKA</text><!--entity MongoDB--><path d="M312.0692,426.4207 C312.0692,411.6657 377.7291,411.6657 377.7291,411.6657 C377.7291,411.6657 443.389,411.6657 443.389,426.4207 L443.389,463.7464 C443.389,478.5014 377.7291,478.5014 377.7291,478.5014 C377.7291,478.5014 312.0692,478.5014 312.0692,463.7464 L312.0692,426.4207 " fill="#FEFECE" filter="url(#fxi6e5iizjj61)" style="stroke: #000000; stroke-width: 2.2132564841498557;"/><path d="M312.0692,426.4207 C312.0692,441.1758 377.7291,441.1758 377.7291,441.1758 C377.7291,441.1758 443.389,441.1758 443.389,426.4207 " fill="none" style="stroke: #000000; stroke-width: 2.2132564841498557;"/><text fill="#000000" font-family="sans-serif" font-size="20.6571" lengthAdjust="spacingAndGlyphs" textLength="101.8098" x="326.8242" y="466.2522">MongoDB</text><!--entity Datomic--><path d="M141.6484,426.4207 C141.6484,411.6657 200.6686,411.6657 200.6686,411.6657 C200.6686,411.6657 259.6888,411.6657 259.6888,426.4207 L259.6888,463.7464 C259.6888,478.5014 200.6686,478.5014 200.6686,478.5014 C200.6686,478.5014 141.6484,478.5014 141.6484,463.7464 L141.6484,426.4207 " fill="#FEFECE" filter="url(#fxi6e5iizjj61)" style="stroke: #000000; stroke-width: 2.2132564841498557;"/><path d="M141.6484,426.4207 C141.6484,441.1758 200.6686,441.1758 200.6686,441.1758 C200.6686,441.1758 259.6888,441.1758 259.6888,426.4207 " fill="none" style="stroke: #000000; stroke-width: 2.2132564841498557;"/><text fill="#000000" font-family="sans-serif" font-size="20.6571" lengthAdjust="spacingAndGlyphs" textLength="88.5303" x="156.4035" y="466.2522">Datomic</text><!--entity Session Worker--><rect fill="#FFD700" filter="url(#fxi6e5iizjj61)" height="51.8386" style="stroke: #000000; stroke-width: 2.2132564841498557;" width="194.7666" x="56.0692" y="249.3602"/><rect fill="#FFD700" height="7.3775" style="stroke: #000000; stroke-width: 2.2132564841498557;" width="14.755" x="48.6916" y="256.7378"/><rect fill="#FFD700" height="7.3775" style="stroke: #000000; stroke-width: 2.2132564841498557;" width="14.755" x="48.6916" y="286.4438"/><text fill="#000000" font-family="Courier" font-size="19.1816" lengthAdjust="spacingAndGlyphs" textLength="165.2565" x="70.8242" y="281.92">Session Worker</text><!--link Command Session to KAFKA--><path d="M652.6303,301.2596 C631.8198,328.6037 597.9467,373.1123 573.648,405.0389 " fill="none" id="Command Session-KAFKA" style="stroke: #FF6655; stroke-width: 1.4755043227665705;"/><polygon fill="#FF6655" points="568.922,411.2475,581.6611,404.2551,573.3902,405.377,572.2682,397.106,568.922,411.2475" style="stroke: #FF6655; stroke-width: 1.4755043227665705;"/><!--link Tracking to KAFKA--><path d="M856.2012,301.0191 C840.1817,312.5753 820.2019,326.0791 801.1988,336.415 C734.8262,372.5176 653.6735,404.4523 600.6055,423.8256 " fill="none" id="Tracking-KAFKA" style="stroke: #FF6655; stroke-width: 1.4755043227665705;"/><polygon fill="#FF6655" points="593.6323,426.3585,608.1289,427.3719,600.5665,423.8396,604.0987,416.2771,593.6323,426.3585" style="stroke: #FF6655; stroke-width: 1.4755043227665705;"/><!--link Query Session to MongoDB--><path d="M417.9779,301.2596 C410.3319,328.2628 397.945,372.0027 388.9297,403.8358 " fill="none" id="Query Session-MongoDB" style="stroke: #FF6655; stroke-width: 1.4755043227665705;"/><polygon fill="#FF6655" points="386.8315,411.2475,396.1283,400.0784,388.8415,404.1491,384.7708,396.8624,386.8315,411.2475" style="stroke: #FF6655; stroke-width: 1.4755043227665705;"/><!--link Session Worker to KAFKA--><path d="M212.9758,304.0911 C241.6522,316.0825 276.902,329.0655 309.8559,336.415 C344.514,344.1452 437.8441,331.5753 469.2104,348.219 C495.4448,362.1404 515.6091,389.5969 528.4297,411.456 " fill="none" id="Session Worker-KAFKA" style="stroke: #FF6655; stroke-width: 1.4755043227665705;"/><polygon fill="#FF6655" points="205.8329,301.0678,215.7632,311.6776,212.6273,303.9424,220.3625,300.8065,205.8329,301.0678" style="stroke: #FF6655; stroke-width: 1.4755043227665705;"/><!--link Session Worker to Datomic--><path d="M160.4198,301.2596 C168.0658,328.2628 180.4527,372.0027 189.468,403.8358 " fill="none" id="Session Worker-Datomic" style="stroke: #FF6655; stroke-width: 1.4755043227665705;"/><polygon fill="#FF6655" points="191.5662,411.2475,193.6269,396.8624,189.5562,404.1491,182.2694,400.0784,191.5662,411.2475" style="stroke: #FF6655; stroke-width: 1.4755043227665705;"/><!--link Session Worker to MongoDB--><path d="M206.7742,301.1431 C231.5465,313.6406 260.76,330.0379 284.7723,348.219 C306.9669,365.0235 328.8678,387.1008 345.8317,405.7609 " fill="none" id="Session Worker-MongoDB" style="stroke: #FF6655; stroke-width: 1.4755043227665705;"/><polygon fill="#FF6655" points="350.9339,411.4326,346.4412,397.6125,346.0002,405.9475,337.6651,405.5066,350.9339,411.4326" style="stroke: #FF6655; stroke-width: 1.4755043227665705;"/><!--link Dispositivo embarcado to Command Session--><path d="M671.3545,147.0001 C671.3545,174.6466 671.3545,214.0573 671.3545,241.5607 " fill="none" id="Dispositivo embarcado-Command Session" style="stroke: #FF6655; stroke-width: 1.4755043227665705;"/><polygon fill="#FF6655" points="671.3545,248.981,677.2565,235.7015,671.3545,241.6035,665.4524,235.7015,671.3545,248.981" style="stroke: #FF6655; stroke-width: 1.4755043227665705;"/><polygon fill="#FF6655" points="671.3545,139.2507,665.4524,152.5303,671.3545,146.6282,677.2565,152.5303,671.3545,139.2507" style="stroke: #FF6655; stroke-width: 1.4755043227665705;"/><!--link Dispositivo embarcado to Query Session--><path d="M617.0721,142.5662 C593.8462,155.1596 566.6748,170.5949 542.9856,185.9135 C514.9525,204.0416 484.774,226.5445 461.9479,244.2299 " fill="none" id="Dispositivo embarcado-Query Session" style="stroke: #FF6655; stroke-width: 1.4755043227665705;"/><polygon fill="#FF6655" points="455.7125,249.0828,469.8176,245.5863,461.5351,244.5525,462.569,236.27,455.7125,249.0828" style="stroke: #FF6655; stroke-width: 1.4755043227665705;"/><polygon fill="#FF6655" points="624.1457,138.752,609.6559,139.8586,617.6518,142.2529,615.2574,150.2489,624.1457,138.752" style="stroke: #FF6655; stroke-width: 1.4755043227665705;"/><!--link Dispositivo embarcado to Tracking--><path d="M730.9914,142.6341 C753.8484,154.6284 779.6034,169.6107 801.1988,185.9135 C823.5159,202.7623 845.6632,225.1974 862.0339,243.1705 " fill="none" id="Dispositivo embarcado-Tracking" style="stroke: #FF6655; stroke-width: 1.4755043227665705;"/><polygon fill="#FF6655" points="867.356,249.0799,862.8562,235.2621,862.4195,243.5974,854.0842,243.1606,867.356,249.0799" style="stroke: #FF6655; stroke-width: 1.4755043227665705;"/><polygon fill="#FF6655" points="723.999,139.0087,733.0728,150.3598,730.5489,142.4038,738.5049,139.88,723.999,139.0087" style="stroke: #FF6655; stroke-width: 1.4755043227665705;"/><!--
@startuml
scale 1024*768

skinparam interface {
  backgroundColor RosyBrown
  borderColor orange
}


skinparam component {
  FontSize 13
  BackgroundColor<<Apache>> Red
  BorderColor<<Apache>> #FF6655
  FontName Courier
  BorderColor black
  BackgroundColor gold
  ArrowFontName Impact
  ArrowColor #FF6655
  ArrowFontColor #777777
}

package "UI" {
    [Dispositivo embarcado]
}

package "API"{
    [Command Session]
    [Query Session]
    [Tracking]
}

package "Banco de dados"{
    database KAFKA
    database MongoDB
    database Datomic
}


package "Process"{
    [Session Worker]
}

[Command Session] -right-> KAFKA
[Tracking] -right-> KAFKA
[Query Session] -right-> MongoDB
KAFKA -left-> [Session Worker]
[Session Worker] -right-> Datomic
[Session Worker] -right-> MongoDB

[Dispositivo embarcado] <-right-> [Command Session]
[Dispositivo embarcado] <-right-> [Query Session]
[Dispositivo embarcado] <-right-> [Tracking]

@enduml

PlantUML version 1.2017.12(Wed Apr 26 13:06:36 BRT 2017)
(GPL source distribution)
Java Runtime: OpenJDK Runtime Environment
JVM: OpenJDK 64-Bit Server VM
Java Version: 1.8.0_112-release-736-b16
Operating System: Linux
OS Version: 4.4.0-53-generic
Default Encoding: UTF-8
Language: pt
Country: BR
--></g></svg>